<svg viewBox="0 0 1400 900" preserveAspectRatio="xMidYMid meet" xmlns="http://www.w3.org/2000/svg">
  <defs>
    <linearGradient id="gBg" x1="0%" y1="0%" x2="100%" y2="100%">
      <stop offset="0%" stop-color="#121212"/>
      <stop offset="100%" stop-color="#0a0a0a"/>
    </linearGradient>
    <filter id="gShadow" x="-20%" y="-20%" width="140%" height="140%">
      <feDropShadow dx="0" dy="16" stdDeviation="18" flood-color="#000000" flood-opacity="0.35"/>
    </filter>
  </defs>

  <rect width="1400" height="900" fill="url(#gBg)"/>
  <rect x="32" y="24" width="1336" height="56" rx="14" fill="#1a1a1a"/>
  <text x="64" y="60" font-size="18" font-family="Segoe UI, Arial, sans-serif" fill="#cfcfcf">Ready (human-benchmark)</text>

  <text x="100" y="132" font-size="28" font-family="Consolas, Menlo, monospace" font-weight="700" fill="#ffffff">
    Plan: Gemini Code Assist in Google One AI Pro /upgrade
  </text>

  <rect x="40" y="190" width="1315" height="54" rx="8" fill="#2a2a2a"/>
  <text x="58" y="225" font-size="22" font-family="Consolas, Menlo, monospace" fill="#d6a8ff">&gt; /model</text>

  <rect x="46" y="300" width="1308" height="560" rx="14" fill="#0c0c0c" stroke="#4a4a4a" stroke-width="2" filter="url(#gShadow)"/>

  <text x="74" y="360" font-size="28" font-family="Consolas, Menlo, monospace" fill="#ffffff">Select Model</text>

  <rect x="74" y="392" width="980" height="72" fill="#3e473b"/>
  <text x="98" y="430" font-size="28" font-family="Consolas, Menlo, monospace" fill="#d8f5d2">• 1. Auto (Gemini 3)</text>
  <text x="132" y="456" font-size="21" font-family="Consolas, Menlo, monospace" fill="#bfc8bb">Let Gemini CLI decide the best model for the task: gemini-3-pro, gemini-3-flash</text>

  <text x="98" y="494" font-size="28" font-family="Consolas, Menlo, monospace" fill="#ffffff">2. Auto (Gemini 2.5)</text>
  <text x="132" y="520" font-size="21" font-family="Consolas, Menlo, monospace" fill="#b4b4b4">Let Gemini CLI decide the best model for the task: gemini-2.5-pro, gemini-2.5-flash</text>

  <text x="98" y="560" font-size="28" font-family="Consolas, Menlo, monospace" fill="#ffffff">3. Manual</text>
  <text x="132" y="588" font-size="21" font-family="Consolas, Menlo, monospace" fill="#b4b4b4">Manually select a model</text>

  <text x="74" y="648" font-size="28" font-family="Consolas, Menlo, monospace" fill="#ffffff">Model usage</text>

  <text x="74" y="720" font-size="26" font-family="Consolas, Menlo, monospace" fill="#ffffff">Flash</text>
  <rect x="220" y="702" width="760" height="8" rx="4" fill="#4d4d4d"/>
  <rect x="220" y="702" width="76" height="8" rx="4" fill="#d7f8d1"/>
  <text x="1004" y="724" font-size="24" font-family="Consolas, Menlo, monospace" fill="#ffffff">10%</text>
  <text x="1060" y="724" font-size="22" font-family="Consolas, Menlo, monospace" fill="#b4b4b4">Resets: 11:30 PM</text>

  <text x="74" y="764" font-size="26" font-family="Consolas, Menlo, monospace" fill="#ffffff">Flash Lite</text>
  <rect x="220" y="746" width="760" height="8" rx="4" fill="#4d4d4d"/>
  <rect x="220" y="746" width="22" height="8" rx="4" fill="#d7f8d1"/>
  <text x="1004" y="768" font-size="24" font-family="Consolas, Menlo, monospace" fill="#ffffff">2%</text>
  <text x="1060" y="768" font-size="22" font-family="Consolas, Menlo, monospace" fill="#b4b4b4">Resets: 11:30 PM</text>

  <text x="74" y="808" font-size="26" font-family="Consolas, Menlo, monospace" fill="#ffffff">Pro</text>
  <rect x="220" y="790" width="760" height="8" rx="4" fill="#4d4d4d"/>
  <rect x="220" y="790" width="10" height="8" rx="4" fill="#d7f8d1"/>
  <text x="1004" y="812" font-size="24" font-family="Consolas, Menlo, monospace" fill="#ffffff">1%</text>
  <text x="1060" y="812" font-size="22" font-family="Consolas, Menlo, monospace" fill="#b4b4b4">Resets: 1:26 PM</text>
</svg>
